{"accessors":[{"bufferView":0,"componentType":5126,"count":36,"max":[0.02500000037252903,0.02500000037252903,0.05000000074505806],"min":[-0.02500000037252903,-0.02500000037252903,-0.05000000074505806],"normalized":false,"type":"VEC3"},{"bufferView":1,"componentType":5126,"count":36,"max":[0.0,0.0,7.630093023180962e-05,-1.0],"min":[-1.0,-1.0,-1.0,-1.0],"normalized":false,"type":"VEC4"},{"bufferView":2,"componentType":5126,"count":36,"max":[1.0,1.0,1.0],"min":[-1.0,-1.0,-1.0],"normalized":false,"type":"VEC3"},{"bufferView":3,"componentType":5126,"count":36,"max":[1.0,1.0],"min":[0.0,0.0],"normalized":false,"type":"VEC2"},{"bufferView":4,"componentType":5121,"count":36,"max":[35],"min":[0],"normalized":false,"type":"SCALAR"},{"bufferView":5,"componentType":5126,"count":96,"max":[0.019999999552965164,0.10000000149011612,0.019999999552965164],"min":[-0.019999999552965164,-0.10000000149011612,-0.019999999552965164],"normalized":false,"type":"VEC3"},{"bufferView":6,"componentType":5126,"count":96,"max":[1.0,6.474052497651428e-05,0.9238942265510559,1.0],"min":[-0.9239169359207153,-2.157951530534774e-05,-0.9239069223403931,-1.0],"normalized":false,"type":"VEC4"},{"bufferView":7,"componentType":5126,"count":96,"max":[0.9238970875740051,1.0,0.9238942265510559],"min":[-0.9238970875740051,-1.0,-0.9238672256469727],"normalized":false,"type":"VEC3"},{"bufferView":8,"componentType":5126,"count":96,"max":[1.0,1.0],"min":[0.0,0.0],"normalized":false,"type":"VEC2"},{"bufferView":9,"componentType":5121,"count":96,"max":[95],"min":[0],"normalized":false,"type":"SCALAR"},{"bufferView":10,"componentType":5126,"count":96,"max":[0.02500000037252903,0.05000000074505806,0.02500000037252903],"min":[-0.02500000037252903,-0.05000000074505806,-0.02500000037252903],"normalized":false,"type":"VEC3"},{"bufferView":11,"componentType":5126,"count":96,"max":[1.0,6.474052497651428e-05,0.9238942265510559,1.0],"min":[-0.9239169359207153,-2.157951530534774e-05,-0.9239069223403931,-1.0],"normalized":false,"type":"VEC4"}],"asset":{"generator":"Godot Engine v4.6.2.stable.mono.official@71f334935c000924d403448e698df4441130df18","version":"2.0"},"bufferViews":[{"buffer":0,"byteLength":432,"byteStride":12,"target":34962},{"buffer":0,"byteLength":576,"byteOffset":432,"byteStride":16,"target":34962},{"buffer":0,"byteLength":432,"byteOffset":1008,"byteStride":12,"target":34962},{"buffer":0,"byteLength":288,"byteOffset":1440,"byteStride":8,"target":34962},{"buffer":0,"byteLength":36,"byteOffset":1728,"target":34963},{"buffer":0,"byteLength":1152,"byteOffset":1764,"byteStride":12,"target":34962},{"buffer":0,"byteLength":1536,"byteOffset":2916,"byteStride":16,"target":34962},{"buffer":0,"byteLength":1152,"byteOffset":4452,"byteStride":12,"target":34962},{"buffer":0,"byteLength":768,"byteOffset":5604,"byteStride":8,"target":34962},{"buffer":0,"byteLength":96,"byteOffset":6372,"target":34963},{"buffer":0,"byteLength":1152,"byteOffset":6468,"byteStride":12,"target":34962},{"buffer":0,"byteLength":1536,"byteOffset":7620,"byteStride":16,"target":34962}],"buffers":[{"byteLength":9156,"uri":"pistols0.bin"}],"extensionsUsed":["GODOT_single_root"],"materials":[{},{},{}],"meshes":[{"name":"Body2","primitives":[{"attributes":{"NORMAL":2,"POSITION":0,"TANGENT":1,"TEXCOORD_0":3},"indices":4,"material":0,"mode":4}]},{"name":"Barrel2","primitives":[{"attributes":{"NORMAL":7,"POSITION":5,"TANGENT":6,"TEXCOORD_0":8},"indices":9,"material":1,"mode":4}]},{"name":"Handle2","primitives":[{"attributes":{"NORMAL":7,"POSITION":10,"TANGENT":11,"TEXCOORD_0":8},"indices":9,"material":2,"mode":4}]}],"nodes":[{"children":[1,2,3],"name":"Pistols"},{"mesh":0,"name":"Body2"},{"mesh":1,"name":"Barrel2","rotation":[0.7071067690849304,0.0,0.0,0.7071067690849304],"translation":[0.0,0.004682455211877823,-0.12200000137090683]},{"mesh":2,"name":"Handle2","rotation":[-0.3826834559440613,0.0,0.0,0.9238795638084412],"translation":[0.0,-0.027908381074666977,0.06364098191261292]}],"scene":0,"scenes":[{"nodes":[0]}]}