{"accessors":[{"bufferView":0,"componentType":5126,"count":1905,"max":[40.89703369140625,1.8914527893066406,1.1921967267990112],"min":[-28.03645133972168,-6.1864471435546875,-1.426188349723816],"normalized":false,"type":"VEC3"},{"bufferView":1,"componentType":5126,"count":1905,"max":[0.9022809863090515,1.0,1.0,1.0],"min":[-0.9999998807907104,-0.995845377445221,-1.0,1.0],"normalized":false,"type":"VEC4"},{"bufferView":2,"componentType":5126,"count":1905,"max":[1.0,1.0,1.0],"min":[-1.0,-1.0,-1.0],"normalized":false,"type":"VEC3"},{"bufferView":3,"componentType":5126,"count":1905,"max":[0.9680171012878418,0.723384439945221],"min":[0.059510186314582825,0.022781720384955406],"normalized":false,"type":"VEC2"},{"bufferView":4,"componentType":5123,"count":3324,"max":[1904],"min":[0],"normalized":false,"type":"SCALAR"},{"bufferView":5,"componentType":5126,"count":370,"max":[1.1657501459121704,2.101259469985962,0.36038562655448914],"min":[-1.3421024084091187,-0.17412543296813965,-0.3436584770679474],"normalized":false,"type":"VEC3"},{"bufferView":6,"componentType":5126,"count":370,"max":[0.916032612323761,0.8891490697860718,1.0,1.0],"min":[-0.8037053346633911,-0.950186550617218,-1.0,-1.0],"normalized":false,"type":"VEC4"},{"bufferView":7,"componentType":5126,"count":370,"max":[0.9995051622390747,1.0,1.0],"min":[-0.995265007019043,-1.0,-1.0],"normalized":false,"type":"VEC3"},{"bufferView":8,"componentType":5126,"count":370,"max":[0.9611200094223022,0.4887312054634094],"min":[0.5130082964897156,0.269428551197052],"normalized":false,"type":"VEC2"},{"bufferView":9,"componentType":5123,"count":684,"max":[369],"min":[0],"normalized":false,"type":"SCALAR"},{"bufferView":10,"componentType":5126,"count":736,"max":[1.0423457622528076,3.6585402488708496,0.5103127956390381],"min":[-1.4416310787200928,-0.6371990442276001,-0.6359403133392334],"normalized":false,"type":"VEC3"},{"bufferView":11,"componentType":5126,"count":736,"max":[0.9940513372421265,0.9897869825363159,0.9905443787574768,1.0],"min":[-1.0,-0.9900890588760376,-0.9902263283729553,1.0],"normalized":false,"type":"VEC4"},{"bufferView":12,"componentType":5126,"count":736,"max":[1.0,0.9900922179222107,0.9900900721549988],"min":[-1.0,-0.9900890588760376,-1.0],"normalized":false,"type":"VEC3"},{"bufferView":13,"componentType":5126,"count":736,"max":[0.9266346096992493,0.4809491038322449],"min":[0.02514686807990074,0.0643015205860138],"normalized":false,"type":"VEC2"},{"bufferView":14,"componentType":5123,"count":1188,"max":[735],"min":[0],"normalized":false,"type":"SCALAR"},{"bufferView":15,"componentType":5126,"count":72,"max":[0.4861319661140442,0.11995434761047363,0.1602088361978531],"min":[-0.4064939618110657,-0.7039697170257568,-0.1602088063955307],"normalized":false,"type":"VEC3"},{"bufferView":16,"componentType":5126,"count":72,"max":[0.12143599987030029,0.00010204315185546875,1.0,1.0],"min":[-0.00012183189392089844,-0.9926134347915649,-1.0000001192092896,1.0],"normalized":false,"type":"VEC4"},{"bufferView":17,"componentType":5126,"count":72,"max":[0.9945449829101563,0.992609441280365,1.0],"min":[-0.9925992488861084,-0.9925992488861084,-1.0],"normalized":false,"type":"VEC3"},{"bufferView":18,"componentType":5126,"count":72,"max":[0.9452353715896606,0.4753795564174652],"min":[0.5344777703285217,0.27647823095321655],"normalized":false,"type":"VEC2"},{"bufferView":19,"componentType":5121,"count":108,"max":[71],"min":[0],"normalized":false,"type":"SCALAR"}],"asset":{"generator":"Godot Engine v4.6.2.stable.mono.official@71f334935c000924d403448e698df4441130df18","version":"2.0"},"bufferViews":[{"buffer":0,"byteLength":22860,"byteStride":12,"target":34962},{"buffer":0,"byteLength":30480,"byteOffset":22860,"byteStride":16,"target":34962},{"buffer":0,"byteLength":22860,"byteOffset":53340,"byteStride":12,"target":34962},{"buffer":0,"byteLength":15240,"byteOffset":76200,"byteStride":8,"target":34962},{"buffer":0,"byteLength":6648,"byteOffset":91440,"target":34963},{"buffer":0,"byteLength":4440,"byteOffset":98088,"byteStride":12,"target":34962},{"buffer":0,"byteLength":5920,"byteOffset":102528,"byteStride":16,"target":34962},{"buffer":0,"byteLength":4440,"byteOffset":108448,"byteStride":12,"target":34962},{"buffer":0,"byteLength":2960,"byteOffset":112888,"byteStride":8,"target":34962},{"buffer":0,"byteLength":1368,"byteOffset":115848,"target":34963},{"buffer":0,"byteLength":8832,"byteOffset":117216,"byteStride":12,"target":34962},{"buffer":0,"byteLength":11776,"byteOffset":126048,"byteStride":16,"target":34962},{"buffer":0,"byteLength":8832,"byteOffset":137824,"byteStride":12,"target":34962},{"buffer":0,"byteLength":5888,"byteOffset":146656,"byteStride":8,"target":34962},{"buffer":0,"byteLength":2376,"byteOffset":152544,"target":34963},{"buffer":0,"byteLength":864,"byteOffset":154920,"byteStride":12,"target":34962},{"buffer":0,"byteLength":1152,"byteOffset":155784,"byteStride":16,"target":34962},{"buffer":0,"byteLength":864,"byteOffset":156936,"byteStride":12,"target":34962},{"buffer":0,"byteLength":576,"byteOffset":157800,"byteStride":8,"target":34962},{"buffer":0,"byteLength":108,"byteOffset":158376,"target":34963}],"buffers":[{"byteLength":158484,"uri":"Rifle0.bin"}],"extensionsUsed":["GODOT_single_root"],"materials":[{"doubleSided":true,"name":"Material_002","pbrMetallicRoughness":{"baseColorFactor":[0.800000011920929,0.800000011920929,0.800000011920929,1.0],"metallicFactor":1.0,"roughnessFactor":0.5527864098548889}}],"meshes":[{"name":"musket_Musket","primitives":[{"attributes":{"NORMAL":2,"POSITION":0,"TANGENT":1,"TEXCOORD_0":3},"indices":4,"material":0,"mode":4}]},{"name":"musket_Frizzen","primitives":[{"attributes":{"NORMAL":7,"POSITION":5,"TANGENT":6,"TEXCOORD_0":8},"indices":9,"material":0,"mode":4}]},{"name":"musket_HammerMusket","primitives":[{"attributes":{"NORMAL":12,"POSITION":10,"TANGENT":11,"TEXCOORD_0":13},"indices":14,"material":0,"mode":4}]},{"name":"musket_TriggerMusket","primitives":[{"attributes":{"NORMAL":17,"POSITION":15,"TANGENT":16,"TEXCOORD_0":18},"indices":19,"material":0,"mode":4}]}],"nodes":[{"children":[1,2],"name":"Rifle"},{"name":"GPUParticles3D","rotation":[0.0,0.7071067690849304,0.0,0.7071067690849304],"scale":[0.029999999329447746,0.029999999329447746,0.029999999329447746],"translation":[0.5,-0.2564122974872589,-1.9023408889770508]},{"children":[3,4,5],"mesh":0,"name":"Musket","rotation":[0.0,0.7071067690849304,0.0,0.7071067690849304],"scale":[0.029999999329447746,0.029999999329447746,0.029999999329447746],"translation":[0.5,-0.30000001192092896,-0.6499999761581421]},{"mesh":1,"name":"Frizzen","translation":[-4.988666534423828,1.3072032928466797,0.7463767528533936]},{"mesh":2,"name":"HammerMusket","translation":[-8.255125999450684,0.23000335693359375,0.841954231262207]},{"mesh":3,"name":"TriggerMusket","translation":[-11.145426750183105,-1.4001960754394531,-0.14025378227233887]}],"scene":0,"scenes":[{"nodes":[0]}]}