# Blender 4.2.2 LTS
# www.blender.org
mtllib hull.mtl
o Cube
v 9.170497 5.337599 -13.197539
v 7.122694 -5.337599 -13.197539
v 9.170497 5.337599 11.286412
v 7.122694 -5.337599 11.286412
v -9.170497 5.337599 -13.197539
v -7.122694 -5.337599 -13.197539
v -9.170497 5.337599 11.286412
v -7.122694 -5.337599 11.286412
v 9.170497 5.337599 7.369431
v 7.122694 -5.337599 7.369431
v -9.170497 5.337599 7.369431
v -7.122694 -5.337599 7.369431
v -4.941297 2.972563 33.177448
v -6.361941 7.548863 33.177448
v 6.361941 7.548863 33.177448
v 4.941297 2.972563 33.177448
v 3.774719 5.087976 -36.261917
v -3.774719 5.087976 -36.261917
v 4.859966 8.533488 -36.978207
v -4.859966 8.533488 -36.978207
v 9.170497 11.061365 13.756824
v -9.170497 11.061365 13.756824
v 6.361941 12.954811 41.903278
v -6.361941 12.954811 41.903278
v -9.303574 11.106503 -17.185259
v 9.303574 11.106503 -17.185259
v -4.930491 13.375189 -37.922596
v 4.930491 13.375189 -37.922596
v 6.377024 19.074806 34.179653
v -6.377024 19.074806 34.179653
v 6.361941 19.485962 42.835079
v -6.361941 19.485962 42.835079
vn -0.0000 1.0000 -0.0000
vn -0.0000 0.3963 -0.9181
vn -0.9821 -0.1884 -0.0000
vn -0.0000 -1.0000 -0.0000
vn 0.9821 -0.1884 -0.0000
vn 0.9500 -0.2219 -0.2198
vn -0.0000 -0.0000 1.0000
vn 0.9622 -0.2188 0.1622
vn -0.9622 -0.2188 0.1622
vn -0.0000 -0.9349 0.3549
vn -0.0000 -0.2035 -0.9791
vn -0.9500 -0.2219 -0.2198
vn -0.0000 -0.9112 -0.4119
vn -0.0000 0.5686 0.8226
vn -0.9937 0.0869 0.0708
vn -0.9853 -0.1213 0.1206
vn -0.0000 -0.8501 0.5267
vn 0.9853 -0.1213 0.1206
vn -0.0000 0.9941 0.1088
vn -0.9725 -0.1133 -0.2036
vn 0.9725 -0.1133 -0.2036
vn -0.0000 -0.1914 -0.9815
vn -0.0000 0.9989 -0.0474
vn -0.0000 0.9309 -0.3653
vn 0.9937 0.0869 0.0708
vn -0.0000 -0.1412 0.9900
vt 0.625000 0.500000
vt 0.875000 0.500000
vt 0.875000 0.750000
vt 0.625000 0.750000
vt 0.375000 0.000000
vt 0.625000 0.000000
vt 0.625000 0.250000
vt 0.375000 0.250000
vt 0.125000 0.500000
vt 0.375000 0.500000
vt 0.375000 0.750000
vt 0.125000 0.750000
vt 0.625000 1.000000
vt 0.375000 1.000000
s 0
usemtl Material
f 1/1/1 5/2/1 7/3/1 3/4/1
f 3/4/2 7/3/2 22/3/2 21/4/2
f 8/5/3 7/6/3 5/7/3 6/8/3
f 6/9/4 2/10/4 4/11/4 8/12/4
f 2/10/5 1/1/5 3/4/5 4/11/5
f 1/1/6 2/10/6 17/10/6 19/1/6
f 16/11/7 15/4/7 14/13/7 13/14/7
f 4/11/8 3/4/8 15/4/8 16/11/8
f 7/6/9 8/5/9 13/5/9 14/6/9
f 8/12/10 4/11/10 16/11/10 13/12/10
f 18/8/11 20/7/11 19/1/11 17/10/11
f 6/8/12 5/7/12 20/7/12 18/8/12
f 2/10/13 6/9/13 18/9/13 17/10/13
f 5/2/14 1/1/14 26/1/14 25/2/14
f 22/6/15 24/6/15 32/6/15 30/6/15
f 7/6/16 14/6/16 24/6/16 22/6/16
f 14/13/17 15/4/17 23/4/17 24/13/17
f 15/4/18 3/4/18 21/4/18 23/4/18
f 25/2/19 26/1/19 28/1/19 27/2/19
f 20/7/20 5/7/20 25/7/20 27/7/20
f 1/1/21 19/1/21 28/1/21 26/1/21
f 19/1/22 20/7/22 27/7/22 28/1/22
f 29/4/23 30/3/23 32/3/23 31/4/23
f 21/4/24 22/3/24 30/3/24 29/4/24
f 23/4/25 21/4/25 29/4/25 31/4/25
f 24/13/26 23/4/26 31/4/26 32/13/26
l 3 9
l 4 10
l 7 11
l 8 12
