{"accessors":[{"bufferView":0,"componentType":5126,"count":2402,"max":[18.63003158569336,1.8368120193481445,1.2181624174118042],"min":[-26.39285659790039,-6.241087913513184,-1.400222659111023],"normalized":false,"type":"VEC3"},{"bufferView":1,"componentType":5126,"count":2402,"max":[0.9999470710754395,1.0,1.0,1.0],"min":[-0.9999997615814209,-1.0,-1.0,1.0],"normalized":false,"type":"VEC4"},{"bufferView":2,"componentType":5126,"count":2402,"max":[1.0,1.0,1.0],"min":[-1.0,-1.0,-1.0],"normalized":false,"type":"VEC3"},{"bufferView":3,"componentType":5126,"count":2402,"max":[0.9608911275863647,0.6694590449333191],"min":[0.02720683626830578,0.02090485952794552],"normalized":false,"type":"VEC2"},{"bufferView":4,"componentType":5123,"count":4092,"max":[2401],"min":[0],"normalized":false,"type":"SCALAR"},{"bufferView":5,"componentType":5126,"count":370,"max":[1.1657501459121704,2.101259469985962,0.36038562655448914],"min":[-1.3421024084091187,-0.17412543296813965,-0.3436584770679474],"normalized":false,"type":"VEC3"},{"bufferView":6,"componentType":5126,"count":370,"max":[0.916032612323761,0.8891490697860718,1.0,1.0],"min":[-0.8037053346633911,-0.950186550617218,-1.0,-1.0],"normalized":false,"type":"VEC4"},{"bufferView":7,"componentType":5126,"count":370,"max":[0.9995051622390747,1.0,1.0],"min":[-0.995265007019043,-1.0,-1.0],"normalized":false,"type":"VEC3"},{"bufferView":8,"componentType":5126,"count":370,"max":[0.9611200094223022,0.4887312054634094],"min":[0.5130082964897156,0.269428551197052],"normalized":false,"type":"VEC2"},{"bufferView":9,"componentType":5123,"count":684,"max":[369],"min":[0],"normalized":false,"type":"SCALAR"},{"bufferView":10,"componentType":5126,"count":736,"max":[1.0423457622528076,3.6585402488708496,0.5103127956390381],"min":[-1.4416310787200928,-0.6371990442276001,-0.6359403133392334],"normalized":false,"type":"VEC3"},{"bufferView":11,"componentType":5126,"count":736,"max":[0.9940513372421265,0.9897869825363159,0.9905443787574768,1.0],"min":[-1.0,-0.9900890588760376,-0.9902263283729553,1.0],"normalized":false,"type":"VEC4"},{"bufferView":12,"componentType":5126,"count":736,"max":[1.0,0.9900922179222107,0.9900900721549988],"min":[-1.0,-0.9900890588760376,-1.0],"normalized":false,"type":"VEC3"},{"bufferView":13,"componentType":5126,"count":736,"max":[0.9266346096992493,0.4809491038322449],"min":[0.02514686807990074,0.0643015205860138],"normalized":false,"type":"VEC2"},{"bufferView":14,"componentType":5123,"count":1188,"max":[735],"min":[0],"normalized":false,"type":"SCALAR"},{"bufferView":15,"componentType":5126,"count":78,"max":[0.007480621337890625,0.4287111163139343,0.49510782957077026],"min":[-19.0303955078125,-0.4733775854110718,-0.4951080083847046],"normalized":false,"type":"VEC3"},{"bufferView":16,"componentType":5126,"count":78,"max":[0.9998481869697571,0.5646088719367981,0.8660411834716797,1.0],"min":[-0.9998483657836914,-0.8659416437149048,-1.0000001192092896,1.0],"normalized":false,"type":"VEC4"},{"bufferView":17,"componentType":5126,"count":78,"max":[0.9184463024139404,0.9998480081558228,0.8660737872123718],"min":[-0.9998482465744019,-0.9998463988304138,-0.8660269379615784],"normalized":false,"type":"VEC3"},{"bufferView":18,"componentType":5126,"count":78,"max":[0.724330484867096,0.46718546748161316],"min":[0.32797741889953613,0.2847638726234436],"normalized":false,"type":"VEC2"},{"bufferView":19,"componentType":5121,"count":120,"max":[77],"min":[0],"normalized":false,"type":"SCALAR"},{"bufferView":20,"componentType":5126,"count":72,"max":[0.4861319661140442,0.11995434761047363,0.1602088361978531],"min":[-0.4064939618110657,-0.7039697170257568,-0.1602088063955307],"normalized":false,"type":"VEC3"},{"bufferView":21,"componentType":5126,"count":72,"max":[0.12143599987030029,0.00010204315185546875,1.0,1.0],"min":[-0.00012183189392089844,-0.9926134347915649,-1.0000001192092896,1.0],"normalized":false,"type":"VEC4"},{"bufferView":22,"componentType":5126,"count":72,"max":[0.9945449829101563,0.992609441280365,1.0],"min":[-0.9925992488861084,-0.9925992488861084,-1.0],"normalized":false,"type":"VEC3"},{"bufferView":23,"componentType":5126,"count":72,"max":[0.9452353715896606,0.4753795564174652],"min":[0.5344777703285217,0.27647823095321655],"normalized":false,"type":"VEC2"},{"bufferView":24,"componentType":5121,"count":108,"max":[71],"min":[0],"normalized":false,"type":"SCALAR"}],"asset":{"generator":"Godot Engine v4.6.2.stable.mono.official@71f334935c000924d403448e698df4441130df18","version":"2.0"},"bufferViews":[{"buffer":0,"byteLength":28824,"byteStride":12,"target":34962},{"buffer":0,"byteLength":38432,"byteOffset":28824,"byteStride":16,"target":34962},{"buffer":0,"byteLength":28824,"byteOffset":67256,"byteStride":12,"target":34962},{"buffer":0,"byteLength":19216,"byteOffset":96080,"byteStride":8,"target":34962},{"buffer":0,"byteLength":8184,"byteOffset":115296,"target":34963},{"buffer":0,"byteLength":4440,"byteOffset":123480,"byteStride":12,"target":34962},{"buffer":0,"byteLength":5920,"byteOffset":127920,"byteStride":16,"target":34962},{"buffer":0,"byteLength":4440,"byteOffset":133840,"byteStride":12,"target":34962},{"buffer":0,"byteLength":2960,"byteOffset":138280,"byteStride":8,"target":34962},{"buffer":0,"byteLength":1368,"byteOffset":141240,"target":34963},{"buffer":0,"byteLength":8832,"byteOffset":142608,"byteStride":12,"target":34962},{"buffer":0,"byteLength":11776,"byteOffset":151440,"byteStride":16,"target":34962},{"buffer":0,"byteLength":8832,"byteOffset":163216,"byteStride":12,"target":34962},{"buffer":0,"byteLength":5888,"byteOffset":172048,"byteStride":8,"target":34962},{"buffer":0,"byteLength":2376,"byteOffset":177936,"target":34963},{"buffer":0,"byteLength":936,"byteOffset":180312,"byteStride":12,"target":34962},{"buffer":0,"byteLength":1248,"byteOffset":181248,"byteStride":16,"target":34962},{"buffer":0,"byteLength":936,"byteOffset":182496,"byteStride":12,"target":34962},{"buffer":0,"byteLength":624,"byteOffset":183432,"byteStride":8,"target":34962},{"buffer":0,"byteLength":120,"byteOffset":184056,"target":34963},{"buffer":0,"byteLength":864,"byteOffset":184176,"byteStride":12,"target":34962},{"buffer":0,"byteLength":1152,"byteOffset":185040,"byteStride":16,"target":34962},{"buffer":0,"byteLength":864,"byteOffset":186192,"byteStride":12,"target":34962},{"buffer":0,"byteLength":576,"byteOffset":187056,"byteStride":8,"target":34962},{"buffer":0,"byteLength":108,"byteOffset":187632,"target":34963}],"buffers":[{"byteLength":187740,"uri":"Blunderbuss0.bin"}],"extensionsUsed":["GODOT_single_root"],"materials":[{"doubleSided":true,"name":"Material_001","pbrMetallicRoughness":{"baseColorFactor":[0.800000011920929,0.800000011920929,0.800000011920929,1.0],"metallicFactor":1.0,"roughnessFactor":0.5527864098548889}}],"meshes":[{"name":"Blunderbuss_Musketoon","primitives":[{"attributes":{"NORMAL":2,"POSITION":0,"TANGENT":1,"TEXCOORD_0":3},"indices":4,"material":0,"mode":4}]},{"name":"Blunderbuss_Frizzen_001","primitives":[{"attributes":{"NORMAL":7,"POSITION":5,"TANGENT":6,"TEXCOORD_0":8},"indices":9,"material":0,"mode":4}]},{"name":"Blunderbuss_HammerMusket_001","primitives":[{"attributes":{"NORMAL":12,"POSITION":10,"TANGENT":11,"TEXCOORD_0":13},"indices":14,"material":0,"mode":4}]},{"name":"Blunderbuss_Ramrod","primitives":[{"attributes":{"NORMAL":17,"POSITION":15,"TANGENT":16,"TEXCOORD_0":18},"indices":19,"material":0,"mode":4}]},{"name":"Blunderbuss_TriggerMusket_001","primitives":[{"attributes":{"NORMAL":22,"POSITION":20,"TANGENT":21,"TEXCOORD_0":23},"indices":24,"material":0,"mode":4}]}],"nodes":[{"children":[1,6],"name":"Blunderbuss"},{"children":[2,3,4,5],"mesh":0,"name":"Musketoon","rotation":[0.0,0.7071067690849304,0.0,0.7071067690849304],"scale":[0.029999999329447746,0.029999999329447746,0.029999999329447746],"translation":[0.5,-0.30000001192092896,-0.6000000238418579]},{"mesh":1,"name":"Frizzen_001","translation":[-3.3450684547424316,1.2525348663330078,0.7723424434661865]},{"mesh":2,"name":"HammerMusket_001","translation":[-6.611535549163818,0.1753520965576172,0.867919921875]},{"mesh":3,"name":"Ramrod","translation":[18.007102966308594,-0.3267555236816406,-0.11428812146186829]},{"mesh":4,"name":"TriggerMusket_001","translation":[-9.501795768737793,-1.4548587799072266,-0.11428812891244888]},{"name":"GPUParticles3D","rotation":[0.0,0.7071067690849304,0.0,0.7071067690849304],"scale":[0.029999999329447746,0.029999999329447746,0.029999999329447746],"translation":[0.5000000596046448,-0.2564122974872589,-0.8999999761581421]}],"scene":0,"scenes":[{"nodes":[0]}]}