{"accessors":[{"bufferView":0,"componentType":5126,"count":2146,"max":[9.571890830993652,2.2279415130615234,1.102810025215149],"min":[-9.219813346862793,-3.473491668701172,-1.102810025215149],"normalized":false,"type":"VEC3"},{"bufferView":1,"componentType":5126,"count":2146,"max":[1.0,1.0,1.0000001192092896,1.0],"min":[-1.0,-1.0000001192092896,-1.0000001192092896,-1.0],"normalized":false,"type":"VEC4"},{"bufferView":2,"componentType":5126,"count":2146,"max":[1.0,1.0,1.0],"min":[-1.0,-1.0,-1.0],"normalized":false,"type":"VEC3"},{"bufferView":3,"componentType":5126,"count":2146,"max":[0.9409628510475159,0.6059510111808777],"min":[0.10316624492406845,0.04489204287528992],"normalized":false,"type":"VEC2"},{"bufferView":4,"componentType":5123,"count":3828,"max":[2145],"min":[0],"normalized":false,"type":"SCALAR"},{"bufferView":5,"componentType":5126,"count":443,"max":[0.5624489784240723,2.3279175758361816,0.4340747892856598],"min":[-0.836329460144043,-0.4693220853805542,-0.2556595504283905],"normalized":false,"type":"VEC3"},{"bufferView":6,"componentType":5126,"count":443,"max":[0.623396098613739,0.9884633421897888,0.9978867173194885,1.0],"min":[-0.9674875736236572,-0.9642000794410706,-0.9984700679779053,1.0],"normalized":false,"type":"VEC4"},{"bufferView":7,"componentType":5126,"count":443,"max":[1.0,0.9946973323822021,0.996195375919342],"min":[-1.0,-0.9671615958213806,-0.9980405569076538],"normalized":false,"type":"VEC3"},{"bufferView":8,"componentType":5126,"count":443,"max":[0.8713664412498474,0.442542165517807],"min":[0.3346303403377533,0.32428473234176636],"normalized":false,"type":"VEC2"},{"bufferView":9,"componentType":5123,"count":852,"max":[442],"min":[0],"normalized":false,"type":"SCALAR"},{"bufferView":10,"componentType":5126,"count":82,"max":[0.20395994186401367,0.3297306299209595,0.2199999988079071],"min":[-0.27272096276283264,-0.9692631959915161,-0.2199999988079071],"normalized":false,"type":"VEC3"},{"bufferView":11,"componentType":5126,"count":82,"max":[1.0,0.5211873054504395,1.0,1.0],"min":[-1.0,-0.9943524599075317,-1.0,1.0],"normalized":false,"type":"VEC4"},{"bufferView":12,"componentType":5126,"count":82,"max":[0.9997818470001221,1.0,1.0],"min":[-0.9986675977706909,-1.0,-1.0],"normalized":false,"type":"VEC3"},{"bufferView":13,"componentType":5126,"count":82,"max":[0.7249866724014282,0.4749980866909027],"min":[0.5249866247177124,0.27499809861183167],"normalized":false,"type":"VEC2"},{"bufferView":14,"componentType":5121,"count":132,"max":[81],"min":[0],"normalized":false,"type":"SCALAR"}],"asset":{"generator":"Godot Engine v4.6.2.stable.mono.official@71f334935c000924d403448e698df4441130df18","version":"2.0"},"bufferViews":[{"buffer":0,"byteLength":25752,"byteStride":12,"target":34962},{"buffer":0,"byteLength":34336,"byteOffset":25752,"byteStride":16,"target":34962},{"buffer":0,"byteLength":25752,"byteOffset":60088,"byteStride":12,"target":34962},{"buffer":0,"byteLength":17168,"byteOffset":85840,"byteStride":8,"target":34962},{"buffer":0,"byteLength":7656,"byteOffset":103008,"target":34963},{"buffer":0,"byteLength":5316,"byteOffset":110664,"byteStride":12,"target":34962},{"buffer":0,"byteLength":7088,"byteOffset":115980,"byteStride":16,"target":34962},{"buffer":0,"byteLength":5316,"byteOffset":123068,"byteStride":12,"target":34962},{"buffer":0,"byteLength":3544,"byteOffset":128384,"byteStride":8,"target":34962},{"buffer":0,"byteLength":1704,"byteOffset":131928,"target":34963},{"buffer":0,"byteLength":984,"byteOffset":133632,"byteStride":12,"target":34962},{"buffer":0,"byteLength":1312,"byteOffset":134616,"byteStride":16,"target":34962},{"buffer":0,"byteLength":984,"byteOffset":135928,"byteStride":12,"target":34962},{"buffer":0,"byteLength":656,"byteOffset":136912,"byteStride":8,"target":34962},{"buffer":0,"byteLength":132,"byteOffset":137568,"target":34963}],"buffers":[{"byteLength":137700,"uri":"Pistols0.bin"}],"extensionsUsed":["GODOT_single_root"],"materials":[{"doubleSided":true,"name":"Material_003","pbrMetallicRoughness":{"baseColorFactor":[0.800000011920929,0.800000011920929,0.800000011920929,1.0],"metallicFactor":1.0,"roughnessFactor":0.5527864098548889}}],"meshes":[{"name":"pistol_FlintlockPistol","primitives":[{"attributes":{"NORMAL":2,"POSITION":0,"TANGENT":1,"TEXCOORD_0":3},"indices":4,"material":0,"mode":4}]},{"name":"pistol_HammerPistol","primitives":[{"attributes":{"NORMAL":7,"POSITION":5,"TANGENT":6,"TEXCOORD_0":8},"indices":9,"material":0,"mode":4}]},{"name":"pistol_TriggerPistol","primitives":[{"attributes":{"NORMAL":12,"POSITION":10,"TANGENT":11,"TEXCOORD_0":13},"indices":14,"material":0,"mode":4}]},{"name":"pistol_FlintlockPistol2","primitives":[{"attributes":{"NORMAL":2,"POSITION":0,"TANGENT":1,"TEXCOORD_0":3},"indices":4,"material":0,"mode":4}]},{"name":"pistol_HammerPistol2","primitives":[{"attributes":{"NORMAL":7,"POSITION":5,"TANGENT":6,"TEXCOORD_0":8},"indices":9,"material":0,"mode":4}]},{"name":"pistol_TriggerPistol2","primitives":[{"attributes":{"NORMAL":12,"POSITION":10,"TANGENT":11,"TEXCOORD_0":13},"indices":14,"material":0,"mode":4}]}],"nodes":[{"children":[1,6],"name":"Pistols"},{"children":[2,3],"name":"Left","rotation":[0.0,0.7071067690849304,0.0,0.7071067690849304],"scale":[0.029999999329447746,0.029999999329447746,0.029999999329447746],"translation":[-0.5,-0.30000001192092896,-0.5]},{"name":"GPUParticles3D","translation":[10.0,1.4529237747192383,3.814697265625e-06]},{"children":[4,5],"mesh":0,"name":"FlintlockPistol"},{"mesh":1,"name":"HammerPistol","translation":[-2.5633621215820313,1.1742134094238281,0.9638992547988892]},{"mesh":2,"name":"TriggerPistol","translation":[-2.886005401611328,0.11909103393554688,0.0]},{"children":[7,8],"name":"Right","rotation":[0.0,0.7071067690849304,0.0,0.7071067690849304],"scale":[0.029999999329447746,0.029999999329447746,0.029999999329447746],"translation":[0.5,-0.30000001192092896,-0.5]},{"name":"GPUParticles3D2","translation":[10.0,1.4529237747192383,3.814697265625e-06]},{"children":[9,10],"mesh":3,"name":"FlintlockPistol2"},{"mesh":4,"name":"HammerPistol2","translation":[-2.5633621215820313,1.1742134094238281,0.9638992547988892]},{"mesh":5,"name":"TriggerPistol2","translation":[-2.886005401611328,0.11909103393554688,0.0]}],"scene":0,"scenes":[{"nodes":[0]}]}