{"accessors":[{"bufferView":0,"componentType":5126,"count":101,"max":[0.4000000059604645,1.433487892150879,0.3999999761581421],"min":[-0.3999999761581421,-0.12449656426906586,-0.4000000059604645],"normalized":false,"type":"VEC3"},{"bufferView":1,"componentType":5126,"count":101,"max":[1.0,0.09842716157436371,0.9998143911361694,1.0],"min":[-1.0,-0.09846967458724976,-1.0,-1.0],"normalized":false,"type":"VEC4"},{"bufferView":2,"componentType":5126,"count":101,"max":[0.9992925524711609,1.0,0.9994785189628601],"min":[-0.9998692870140076,-2.1579517124337144e-05,-0.9980558156967163],"normalized":false,"type":"VEC3"},{"bufferView":3,"componentType":5126,"count":101,"max":[1.0,0.5],"min":[0.0,0.0],"normalized":false,"type":"VEC2"},{"bufferView":4,"componentType":5121,"count":432,"max":[100],"min":[0],"normalized":false,"type":"SCALAR"}],"asset":{"generator":"Godot Engine v4.6.2.stable.mono.official@71f334935c000924d403448e698df4441130df18","version":"2.0"},"bufferViews":[{"buffer":0,"byteLength":1212,"byteStride":12,"target":34962},{"buffer":0,"byteLength":1616,"byteOffset":1212,"byteStride":16,"target":34962},{"buffer":0,"byteLength":1212,"byteOffset":2828,"byteStride":12,"target":34962},{"buffer":0,"byteLength":808,"byteOffset":4040,"byteStride":8,"target":34962},{"buffer":0,"byteLength":432,"byteOffset":4848,"target":34963}],"buffers":[{"byteLength":5280,"uri":"ghost0.bin"}],"extensionsUsed":["GODOT_single_root"],"materials":[{"alphaMode":"BLEND","doubleSided":true,"pbrMetallicRoughness":{"baseColorFactor":[1.0,1.0,1.0,0.3921568691730499],"metallicFactor":0.0,"roughnessFactor":1.0}}],"meshes":[{"name":"ghost_Sphere","primitives":[{"attributes":{"NORMAL":2,"POSITION":0,"TANGENT":1,"TEXCOORD_0":3},"indices":4,"material":0,"mode":4}]}],"nodes":[{"children":[1],"name":"ghost"},{"mesh":0,"name":"Sphere","rotation":[0.0,-0.3826833963394165,0.0,0.9238795638084412]}],"scene":0,"scenes":[{"nodes":[0]}]}